<svg viewBox="0 0 1366 768" xmlns="http://www.w3.org/2000/svg" data-name="Primary Logo" id="Primary_Logo">
  <defs>
    <style>
      .cls-1 {
        opacity: .52;
      }

      .cls-1, .cls-2 {
        fill: #edf2f5;
      }

      .cls-1, .cls-2, .cls-3, .cls-4, .cls-5 {
        stroke-width: 0px;
      }

      .cls-6 {
        font-family: Poppins-Light, Poppins;
        font-size: 24.39px;
        font-weight: 300;
      }

      .cls-6, .cls-4 {
        fill: #13274e;
      }

      .cls-3 {
        fill: #384867;
      }

      .cls-7 {
        opacity: .5;
      }

      .cls-5 {
        fill: #fff;
      }
    </style>
  </defs>
  <g>
    <path d="M482.65,392.5c-13.06,7.74-43.17,27.73-39.56,38.85,3.73,11.47,9.19,12.75,12.4,15.91.67.66,1.24,1.4,1.67,2.33.6,1.25.95,2.86.97,5.08,0,.47-.45.12-1.73-.12,0,0-2.2-.49-2.22-.49-.42-.09-4.53.12-13.07-3.67-.08-.03-.15-.08-.23-.11-4.74-2.11-9.64-4.85-13.45-8.24-1.92-1.71-3.58-3.59-4.82-5.65,0-.03-.03-.08-.05-.11-1.69-2.23-3.88-5.49-5.74-9.46-.03-.06-.06-.12-.09-.2-1.32-2.85-2.46-6.06-3.11-9.5-1-5.34-.82-11.23,1.74-17.2.2-.48.4-.95.61-1.41v-.02c1.07-2.46,2.14-4.85,3.25-7.17,0-.02.02-.03.03-.05,5.22-10.93,11.45-20.64,23.69-31.19v-.02c.45-.37.89-.75,1.35-1.13,3.71-3.13,7.96-6.31,12.85-9.65.46-.31.92-.61,1.38-.92,1.49-1,3.03-2,4.63-3.01.08-.05.15-.11.23-.16.41-.26.85-.54,1.28-.8,0,0,.72.03,2.05.12,2.2.14,5.78.31,10.24.59,1.89.12,3.94.25,6.11.41,17.05,1.26,41.54,4.02,55.04,10.88,19.96,10.19-27.58,19.59-55.46,36.11Z" class="cls-4"></path>
    <g class="cls-7">
      <path d="M459.55,393.7c-1.18-2.83-1.14-3.28-1.93-3.16-.78.12-1.55,2.28-1.27,4.14.28,1.86,1.51,2.72,2.29,2.6.78-.12,1.63-1.84.91-3.58ZM458.38,395.54c-.38.06-.79-.63-.93-1.53-.14-.9.06-1.67.43-1.73.38-.06.8.63.93,1.52.13.9-.06,1.68-.44,1.73Z" class="cls-2"></path>
      <path d="M425.21,419.95s-.01-.03-.02-.04c-1.08-2.61-1.13-3.17-1.77-3.13-.04,0-.09,0-.15.01-.12.02-.25.09-.37.21-.63.59-1.14,2.37-.91,3.94.18,1.15.72,1.92,1.29,2.31.11.08.22.14.34.18.23.1.47.14.67.11.43-.07.89-.63,1.08-1.41.16-.63.15-1.4-.18-2.17ZM424.04,421.79c-.22.03-.45-.18-.63-.54h0c-.13-.27-.24-.61-.3-.98-.11-.71-.01-1.35.22-1.61.06-.07.13-.11.21-.12.38-.06.8.63.93,1.52.13.9-.06,1.68-.44,1.73Z" class="cls-2"></path>
      <path d="M512.1,374.59c-.14-.42-1.4-.63-2.4-.3-.99.33-1.35,1.09-1.21,1.51.14.41,1.18.71,2.06.15,1.44-.92,1.69-.95,1.55-1.37ZM510.42,375.57c-.48.17-.93.13-.99-.07-.07-.2.26-.5.75-.66.48-.16.93-.13.99.07.07.2-.26.5-.75.66Z" class="cls-2"></path>
      <path d="M441.03,367.28c-.72-.3-2.47,1.13-3.17,2.85-.71,1.72-.11,3.07.62,3.36.72.3,2.31-.73,2.58-2.56.45-2.99.69-3.35-.03-3.65ZM440.38,370.64c-.34.83-.9,1.39-1.25,1.24-.35-.14-.35-.93-.01-1.76.34-.83.9-1.38,1.25-1.24.35.15.36.93.02,1.76Z" class="cls-2"></path>
      <path d="M461.18,380c-.34-.96-1.08-1.29-1.49-1.14-.4.15-.67,1.15-.11,2,.92,1.38.95,1.62,1.35,1.48.4-.15.59-1.37.25-2.33ZM460.62,381.43c-.2.07-.49-.25-.65-.71-.17-.47-.14-.9.05-.97.2-.07.49.25.65.71.17.46.14.9-.05.96Z" class="cls-2"></path>
      <path d="M519.08,355.51c-.47-1.01-1.3-1.3-1.73-1.11-.42.2-.63,1.32.07,2.19,1.13,1.42,1.19,1.68,1.61,1.48.43-.19.51-1.55.05-2.56ZM518.6,357.12c-.21.09-.55-.23-.78-.71-.23-.49-.24-.97-.04-1.06.21-.09.55.23.78.72.22.49.24.96.03,1.06Z" class="cls-2"></path>
      <path d="M472.99,365.19c-.86-1.08-1.96-1.18-2.41-.81-.45.36-.36,1.77.74,2.61,1.79,1.37,1.93,1.66,2.38,1.29.45-.36.15-2.01-.71-3.09ZM472.89,367.27c-.22.18-.74-.1-1.15-.63-.42-.52-.58-1.08-.36-1.26.22-.18.73.1,1.15.63.41.52.57,1.08.36,1.26Z" class="cls-2"></path>
      <path d="M494.23,352.33c-.45-.23-1.54.35-1.83,1.52-.46,1.92-.64,2.13-.19,2.37.45.24,1.67-.6,2.22-1.67.56-1.08.24-1.99-.21-2.22ZM493.62,354.48c-.27.52-.67.85-.89.74-.22-.11-.18-.63.09-1.14s.66-.85.88-.74c.22.11.18.63-.09,1.14Z" class="cls-2"></path>
      <path d="M479.83,355.1c-.65-.78-1.46-.84-1.79-.56-.33.27-.24,1.31.58,1.92,1.34.98,1.44,1.2,1.77.92.33-.27.09-1.49-.56-2.27ZM479.79,356.64c-.16.13-.54-.07-.86-.45-.31-.38-.44-.79-.28-.93.16-.13.54.07.86.45.31.38.44.79.28.92Z" class="cls-2"></path>
      <path d="M442.82,382.89c-1.32-.1-2.09.6-2.14,1.15-.04.55,1,1.4,2.3,1.18,2.12-.36,2.42-.26,2.46-.82.04-.55-1.31-1.42-2.63-1.52ZM443.03,384.72c-.64-.05-1.13-.31-1.11-.57.02-.26.55-.45,1.19-.39.64.05,1.13.31,1.11.57-.02.27-.55.45-1.19.4Z" class="cls-2"></path>
      <path d="M415.48,390.56c-.72-.3-2.46,1.13-3.17,2.85-.7,1.71-.1,3.07.62,3.36.72.3,2.31-.74,2.59-2.57.44-2.99.69-3.35-.03-3.65ZM414.84,393.93c-.34.83-.9,1.39-1.25,1.24-.35-.14-.35-.93-.01-1.76.34-.83.9-1.38,1.25-1.24.35.14.35.93.01,1.76Z" class="cls-2"></path>
      <path d="M417.28,406.18c-1.32-.1-2.1.61-2.14,1.15-.04.55,1,1.4,2.3,1.19,2.12-.36,2.41-.26,2.45-.82.05-.55-1.3-1.42-2.62-1.52ZM417.49,408c-.64-.05-1.14-.31-1.12-.57.02-.26.55-.44,1.19-.39.63.05,1.13.31,1.11.57-.02.26-.55.44-1.18.39Z" class="cls-2"></path>
      <path d="M463.41,354.87s-.02-.02-.02-.03c-.32-.36-1.42-.32-2.14.52-1.13,1.33-1.41,1.49-1.2,1.83.01.02.02.04.04.05.27.38,1.64.21,2.55-.45.92-.66,1.04-1.55.77-1.93ZM461.99,356.39c-.44.32-.91.42-1.04.24-.02-.02-.03-.04-.03-.07-.05-.2.19-.56.59-.84.4-.29.83-.4,1-.28.02.01.03.03.04.04.13.19-.11.6-.56.91Z" class="cls-2"></path>
      <path d="M432.55,414.3c-1.81.68-2.09.65-2.04,1.15.06.5,1.4,1.03,2.59.9,1.18-.14,1.75-.9,1.69-1.39-.06-.5-1.13-1.07-2.25-.65ZM432.71,415.64c-.57.07-1.05-.08-1.08-.32-.03-.24.41-.49.98-.55.57-.07,1.06.08,1.08.32.03.24-.41.49-.98.55Z" class="cls-2"></path>
      <path d="M518.61,365.36c-.19-.38-1.22-.53-1.99.13-1.26,1.08-1.49,1.13-1.3,1.52.19.38,1.43.42,2.34-.04.91-.46,1.14-1.23.95-1.62ZM517.13,366.52c-.44.22-.87.25-.96.06-.09-.18.19-.51.63-.73.44-.22.87-.25.96-.07.09.19-.19.51-.63.74Z" class="cls-2"></path>
      <path d="M429.53,395.43c-.09-.12-.18-.23-.28-.3-.11-.09-.23-.15-.34-.18-.6-.14-1.71.85-1.7,2.32.02,2.09-.09,2.59.28,2.78.05.03.11.05.19.06.06.02.13.02.21,0,.64-.14,1.61-1.34,1.91-2.61.22-.91.04-1.63-.27-2.07ZM428.82,397.66c-.09.39-.26.73-.44.93-.13.14-.26.22-.39.19-.03,0-.05-.02-.07-.03-.24-.14-.31-.71-.16-1.34.17-.69.53-1.19.82-1.12.07.02.13.07.17.14.1.15.15.41.12.72,0,.16-.03.34-.07.51Z" class="cls-2"></path>
      <path d="M423.75,382.74c-.15-.68-.55-1.12-.93-1.21-.6-.14-1.71.86-1.7,2.33.03,2.36-.12,2.69.45,2.84.01,0,.02,0,.03,0,.6.15,1.79-1.19,2.13-2.62.12-.51.12-.96.04-1.34ZM421.68,383.99c.16-.69.53-1.19.82-1.12.28.07.39.68.22,1.37-.16.69-.53,1.19-.82,1.12-.29-.07-.39-.68-.23-1.37Z" class="cls-2"></path>
      <path d="M474.03,388.53c-2.52-.75-2.8-1-3.14-.42-.34.59.68,2.26,2.07,3.08,1.39.81,2.63.46,2.97-.12.34-.59-.35-2.08-1.9-2.54ZM474.63,390.3c-.17.28-.85.19-1.52-.2-.67-.39-1.08-.94-.92-1.23.17-.28.85-.19,1.52.2.67.4,1.09.95.92,1.23Z" class="cls-2"></path>
      <path d="M488.17,364.72c-1.8-.74-1.98-.95-2.28-.55-.3.4.33,1.71,1.28,2.42.96.71,1.9.54,2.19.14.3-.4-.1-1.55-1.2-2.01ZM488.47,366.07c-.15.19-.64.07-1.1-.27-.46-.34-.72-.78-.57-.97.15-.2.64-.08,1.1.26.47.34.73.78.58.97Z" class="cls-2"></path>
      <path d="M442.58,398.02c-.2-.38-1.23-.51-1.99.17-1.24,1.1-1.48,1.16-1.28,1.54.2.38,1.44.39,2.34-.08.91-.47,1.13-1.25.93-1.63ZM441.12,399.21c-.44.23-.86.26-.96.08-.1-.18.18-.52.61-.75.44-.23.87-.26.97-.08.09.18-.18.51-.62.75Z" class="cls-2"></path>
      <path d="M447.63,405.6c-.2-.38-1.23-.51-1.99.17-1.24,1.1-1.47,1.16-1.27,1.54.2.38,1.44.39,2.34-.08s1.12-1.25.93-1.63ZM446.16,406.79c-.44.23-.86.26-.96.08-.09-.19.18-.52.62-.75.43-.23.87-.26.96-.08.1.19-.18.52-.62.75Z" class="cls-2"></path>
      <path d="M480.71,374.8c-.92-.52-1.72-.27-1.94.11-.22.39.25,1.36,1.27,1.65,1.66.46,1.84.62,2.06.24.22-.39-.47-1.48-1.39-2ZM481.24,376.31c-.1.19-.55.13-.99-.11-.45-.25-.72-.61-.62-.8.1-.19.55-.13,1,.12.45.25.72.61.61.79Z" class="cls-2"></path>
      <path d="M501.03,361.74c-.43.03-.96.92-.66,1.89.5,1.58.46,1.82.89,1.79.42-.03.94-1.15.88-2.17-.07-1.01-.69-1.53-1.11-1.51ZM501.2,364.46c-.21.01-.4-.38-.43-.86-.03-.49.11-.9.32-.92.21-.01.4.38.43.87.03.49-.11.9-.32.91Z" class="cls-2"></path>
      <path d="M495.89,375.98c-1.11-.22-3.09,1.68-2.97,4.37.2,4.38-.06,4.96,1.05,5.18,1.11.22,3.2-2.29,3.73-4.93.53-2.64-.7-4.39-1.81-4.61ZM495.9,380.94c-.25,1.27-.9,2.22-1.43,2.11-.54-.11-.76-1.23-.51-2.5.26-1.28.9-2.22,1.43-2.11.53.1.76,1.23.5,2.5Z" class="cls-2"></path>
      <path d="M458.11,367.63c-.34-.31-1.44-.06-1.97.92-.86,1.59-1.08,1.73-.73,2.05.34.32,1.62-.13,2.37-.95.75-.82.68-1.7.34-2.01ZM457.06,369.39c-.36.39-.79.59-.95.44-.17-.16-.01-.6.35-.99.36-.39.79-.59.96-.44.17.15,0,.6-.36.99Z" class="cls-2"></path>
      <path d="M529.76,361.4c-1.86-.18-2.99.8-3.07,1.59s1.39,2.02,3.25,1.74c3.02-.46,3.44-.32,3.51-1.1.08-.79-1.82-2.05-3.69-2.23ZM530.01,363.99c-.9-.08-1.61-.46-1.57-.84.04-.38.8-.62,1.7-.53s1.61.46,1.57.84c-.04.38-.8.62-1.7.53Z" class="cls-2"></path>
      <path d="M431.1,380.92c-.41-.09-1.23.85-1.44,1.84-.22.99.24,1.67.66,1.76.41.09,1.18-.62,1.15-1.63-.05-1.66.06-1.87-.36-1.97ZM431.07,382.8c-.11.48-.36.84-.56.79-.2-.05-.28-.47-.18-.95.11-.48.36-.83.56-.79.2.04.28.47.18.95Z" class="cls-2"></path>
    </g>
    <path d="M457.46,449.59s-.02,0-.03,0c-.1-.02-.2-.03-.29-.05-.41-.06-.8-.13-1.19-.2-9.06-1.5-13.08-2.5-14.98-3.11-.01,0-.03,0-.04-.02-.82-.26-1.24-.45-1.5-.58-.62-.32-1.23-.66-1.82-1.03-.03-.02-.06-.03-.09-.05-5.21-3.19-9.19-7.84-11.59-13.2-.41-.92-.78-1.86-1.09-2.83-.55-1.66-.95-3.36-1.21-5.1-.1-.72-.18-1.44-.23-2.17h0c-.06-.86-.09-1.72-.07-2.59.01-.63.04-1.25.09-1.88.11-1.39.33-2.8.64-4.19l.34-1.51c.85-3.76,1.87-7.44,3.07-11.02.13-.44.28-.87.44-1.3.26-.78.54-1.55.83-2.33.16-.43.32-.87.49-1.29,1.94-5.04,4.25-9.85,6.91-14.4.47-.8.95-1.59,1.44-2.38,9.31-14.84,22.62-26.5,40.05-32.82.02,0,.03-.01.05-.02h0c.28-.1.57-.21.85-.31t.01,0c.95-.34,1.91-.68,2.89-1.03h0c.58-.2,1.16-.41,1.75-.61h0c.6-.21,1.2-.41,1.8-.63,0,0,.01,0,.02,0,0,0,.01,0,.02,0,.61-.21,1.22-.42,1.84-.63,9.48-3.25,19.89-6.72,29.13-10.71,10.59-4.57,4.26-13.18-12.23-16.06-10.96-1.91-25.55-4.27-40.27-5.87-34.13-3.71-68.64,2-99.75,16.52-9.67,4.52-19.1,8.88-26.26,12.16h-.01c-1.3.6-2.54,1.16-3.68,1.68l-.24.11-1.14.51c-1.1.5-2.11.96-3,1.36h-.01c-1.04.47-1.94.86-2.66,1.18l-.3.13-.27.12c-.82.35-1.32.54-1.46.57-2.23.41-4.5.63-6.85.67-.13,0-.26,0-.4,0-3.22.02-6.56-.32-10.06-1.05-4.97-1.03-10.25-2.82-15.94-5.46-.7-.33-1.4-.66-2.12-1.01-4.96-2.45-10.23-5.53-15.85-9.27-11.08-7.39-18.72-8.87-23.5-8.59-2.16.12-3.72,1.71-4.05,3.58h0c-.07.39-.09.78-.05,1.18.07.66.3,1.33.7,1.95.07.11.15.22.22.34,3.56,5.28,14.32,18.44,15.16,19.41.89,1.02,3.26,3.55,6.48,6.91,10.23,10.69,21,20.85,32.26,30.41.9.77,1.79,1.53,2.69,2.27,14.47,12.1,29.74,23.25,45.7,33.36,4.7,2.98,9.2,5.83,13.15,8.32.18.11.35.22.52.33,1.12.71,2.26,1.41,3.4,2.1,8.48,5.09,17.36,9.45,26.57,13.06,2.89,1.13,5.93,2.32,8.88,3.47,11.38,4.44,23.38,7.07,35.58,7.78,37.56,2.19,98.27,5.72,98.27,5.72-41.3-4.52-64.71-7.7-78.07-9.86Z" class="cls-3"></path>
    <path d="M245.93,323.91s38.59,22.66,71.63,20.74c-31.32-5.8-71.63-39.2-71.63-20.74Z" class="cls-4"></path>
    <path d="M317.9,344.65c-2.73.37-5.53.53-8.34.53-26.6,0-55.48-14.9-62.7-18.87-.08-.12-.15-.23-.22-.34-.41-.63-.64-1.29-.7-1.95h0c.21.12,10.58,6.2,24.93,11.55,10.82,4.04,23.9,7.66,36.57,8.03l9.78.97.68.07Z" class="cls-2"></path>
    <path d="M476.96,345.09c-6.21,2.38-13.34,6.49-20.18,11.81-4.8,3.73-13.1,10.98-20.29,21.18h0c-.54.77-1.08,1.56-1.61,2.37-5.54,8.42-10.15,18.68-11.56,30.49-.79,6.6-.42,12.43,1.1,17.44.3.97.63,1.91,1.01,2.82,1.28,3.07,3.05,5.79,5.31,8.15,2.06,2.15,4.38,3.85,6.78,5.2.03.02.06.04.09.05,1.09.61,2.21,1.14,3.32,1.61.02.01.03.02.04.02,6.12,2.58,12.36,3.23,16.19,3.35-.43-.93-1-1.67-1.67-2.33-6.15-.45-16.35-2.31-23.16-9.44-5.9-6.17-8.2-15.13-6.82-26.61,1.4-11.74,6.09-21.92,11.67-30.23,0,0,.01-.02.02-.02h0c7.26-10.82,16.01-18.47,20.94-22.31,8.69-6.76,18.07-11.62,24.93-13.14l-6.11-.41Z" class="cls-5"></path>
    <path d="M481.45,344.17c-1.28.45-2.53.9-3.75,1.34h0c-23.75-5.84-60.65-10.91-111.59-6.88-15.85,1.25-29.63,3.12-39.9,4.78l.27-.12,7.1-3.17.24-.11c9.07-1.31,19.97-2.63,32.05-3.58,30.5-2.41,74.79-2.93,115.58,7.74Z" class="cls-5"></path>
    <path d="M437.82,378.4l-.62,2.55v.03h-.02c-.34-.09-.68-.17-1.03-.25-.42-.09-.84-.19-1.27-.28-36.91-7.97-105.82,1.03-131.42,4.87-.9-.75-1.8-1.5-2.69-2.27,23.86-3.65,97.5-13.67,135.72-4.96.38.09.75.18,1.11.26.07.02.15.04.22.05Z" class="cls-5"></path>
    <path d="M284.47,336.06c-.14-.42-1.4-.63-2.4-.3-.99.33-1.35,1.09-1.21,1.51.14.42,1.17.72,2.06.16,1.44-.92,1.69-.95,1.55-1.37ZM282.79,337.03c-.48.16-.93.13-1-.07-.07-.2.27-.5.75-.66.48-.16.93-.13.99.07.07.2-.27.5-.75.66Z" class="cls-1"></path>
    <path d="M275.94,331.03c-.86-1.08-1.95-1.18-2.41-.81-.45.36-.36,1.77.74,2.61,1.79,1.37,1.93,1.66,2.38,1.29.45-.36.15-2.01-.71-3.09ZM275.85,333.12c-.22.18-.74-.1-1.15-.63-.42-.52-.58-1.08-.36-1.26.22-.18.73.1,1.15.63.41.52.57,1.08.36,1.26Z" class="cls-1"></path>
    <path d="M252.19,322.02c-.86-1.08-1.95-1.17-2.41-.81-.46.36-.36,1.77.74,2.6,1.79,1.37,1.93,1.66,2.38,1.3.46-.36.16-2.01-.71-3.1ZM252.09,324.11c-.22.18-.73-.11-1.15-.63-.41-.52-.57-1.09-.36-1.26.22-.17.74.11,1.15.63.41.52.57,1.08.35,1.26Z" class="cls-1"></path>
    <path d="M291.58,337.58c-.11-.47-1.17-.9-2.2-.45-.05.02-.1.04-.15.06-1.75.91-2.04.91-1.92,1.4.11.5,1.54.88,2.72.6.79-.19,1.27-.63,1.46-1.05.09-.2.12-.4.08-.56ZM289.55,338.53c-.56.13-1.07.05-1.13-.19-.06-.24.36-.54.92-.68.57-.13,1.08-.05,1.13.19.06.24-.36.54-.93.68Z" class="cls-1"></path>
    <path d="M261,322.9c-.65-.79-1.45-.84-1.79-.57-.33.27-.24,1.31.58,1.92,1.34.98,1.44,1.2,1.77.93.33-.27.09-1.49-.56-2.27ZM260.96,324.44c-.16.13-.54-.07-.86-.45-.31-.38-.44-.8-.28-.93.16-.13.54.07.86.45.31.38.43.79.28.92Z" class="cls-1"></path>
    <path d="M268.64,328.42c-.27-.38-1.42-.37-2.15.49-1.19,1.4-1.43,1.5-1.16,1.88.27.38,1.64.21,2.55-.45.92-.66,1.04-1.54.76-1.93ZM267.23,329.95c-.45.32-.91.42-1.04.23-.13-.19.11-.59.55-.91.45-.32.91-.42,1.05-.23.13.18-.12.59-.56.91Z" class="cls-1"></path>
    <path d="M426.53,429.11l-.09,2.39c-.17-.05-.33-.1-.5-.14-.17-.05-.33-.1-.5-.15-15.56-4.26-44.72-2.85-59.2-1.78-1.14-.69-2.28-1.39-3.4-2.1-.17-.11-.34-.22-.52-.33,12.57-1.19,45.54-3.69,62.11,1.39.15.04.28.09.42.13.59.18,1.14.38,1.68.59Z" class="cls-5"></path>
  </g>
  <g>
    <g>
      <path d="M592.82,391.7h9.85v-60.7h-9.85v-1.24h50.76v15.35h-.98c-.77-2.31-1.6-4.33-2.48-6.08-.89-1.74-1.95-3.22-3.19-4.44-1.24-1.21-2.72-2.11-4.44-2.71-1.72-.59-3.79-.89-6.21-.89h-14.73v27.42h5.77c1.95,0,3.61-.18,4.97-.53,1.36-.35,2.53-1.02,3.51-2,.98-.98,1.8-2.31,2.48-3.99.68-1.69,1.34-3.86,2-6.52h.98v27.6h-.98c-.41-1.71-.84-3.37-1.29-4.97-.44-1.6-1.06-3.02-1.86-4.26-.8-1.24-1.86-2.23-3.19-2.97-1.33-.74-3.06-1.11-5.19-1.11h-7.19v32.03h16.77c3.25,0,5.96-.69,8.12-2.09,2.16-1.39,3.92-3.05,5.28-4.97,1.36-1.92,2.37-3.92,3.02-5.99.65-2.07,1.06-3.79,1.24-5.15h.98v19.43h-54.13v-1.24Z" class="cls-4"></path>
      <path d="M652.54,391.7h7.81l23.96-63.54h2.13l24.14,63.54h7.9v1.24h-27.33v-1.24h9.85l-9.32-24.67h-20.59l-9.32,24.67h9.85v1.24h-19.08v-1.24ZM681.38,339.97l-9.76,25.82h19.52l-9.76-25.82Z" class="cls-4"></path>
      <path d="M784.4,370.32h-7.1v20.14h-1.06c-.65-.65-1.18-1.09-1.6-1.33-.41-.24-1.06-.35-1.95-.35-1.06,0-2.14.28-3.24.84-1.1.56-2.37,1.2-3.82,1.91-1.45.71-3.15,1.35-5.1,1.91-1.95.56-4.32.84-7.1.84-4.2,0-7.93-.7-11.18-2.09s-6.39-3.59-9.41-6.61c-2.96-2.96-5.41-6.45-7.36-10.47-1.95-4.02-2.93-8.55-2.93-13.58,0-3.37.38-6.4,1.15-9.1.77-2.69,1.7-5.04,2.8-7.05,1.09-2.01,2.22-3.7,3.37-5.06,1.15-1.36,2.11-2.42,2.88-3.19,2.66-2.66,5.71-4.82,9.14-6.48,3.43-1.66,7.34-2.48,11.71-2.48,2.25,0,4.1.18,5.55.53,1.45.35,2.71.75,3.77,1.2,1.06.44,2.03.84,2.88,1.2.86.35,1.82.53,2.88.53,1.18,0,2.03-.16,2.53-.49.5-.32.99-.78,1.46-1.38h1.33v17.75h-.98c-.24-1.54-.7-3.34-1.38-5.41-.68-2.07-1.75-4.05-3.19-5.95-1.45-1.89-3.37-3.49-5.77-4.79-2.4-1.3-5.46-1.95-9.18-1.95-4.44,0-8,.93-10.69,2.8-2.69,1.86-4.79,4.32-6.3,7.36-1.51,3.05-2.51,6.49-3.02,10.34-.5,3.85-.75,7.72-.75,11.62,0,2.66.12,5.32.35,7.99.24,2.66.63,5.18,1.2,7.54.56,2.37,1.35,4.56,2.35,6.57,1.01,2.01,2.31,3.73,3.9,5.15,1.77,1.6,3.61,2.71,5.5,3.33,1.89.62,4.35.93,7.36.93,1.83,0,3.67-.31,5.5-.93,1.83-.62,3.47-1.55,4.93-2.8,1.45-1.24,2.63-2.82,3.55-4.75.92-1.92,1.38-4.18,1.38-6.79v-7.45h-11.45v-1.24h27.06v1.24Z" class="cls-4"></path>
      <path d="M789.01,391.7h9.85v-60.7h-9.85v-1.24h28.57v1.24h-9.85v60.7h15.8c5.21,0,9.29-1.63,12.25-4.88,2.96-3.25,5.12-7.69,6.48-13.31h.98v19.43h-54.22v-1.24Z" class="cls-4"></path>
      <path d="M849.8,391.7h9.85v-60.7h-9.85v-1.24h50.76v15.35h-.98c-.77-2.31-1.6-4.33-2.48-6.08-.89-1.74-1.95-3.22-3.19-4.44-1.24-1.21-2.72-2.11-4.44-2.71-1.72-.59-3.79-.89-6.21-.89h-14.73v27.42h5.77c1.95,0,3.61-.18,4.97-.53,1.36-.35,2.53-1.02,3.51-2,.98-.98,1.8-2.31,2.48-3.99.68-1.69,1.34-3.86,2-6.52h.98v27.6h-.98c-.41-1.71-.84-3.37-1.29-4.97-.44-1.6-1.06-3.02-1.86-4.26-.8-1.24-1.86-2.23-3.19-2.97-1.33-.74-3.06-1.11-5.19-1.11h-7.19v32.03h16.77c3.25,0,5.96-.69,8.12-2.09,2.16-1.39,3.92-3.05,5.28-4.97,1.36-1.92,2.37-3.92,3.02-5.99.65-2.07,1.06-3.79,1.24-5.15h.98v19.43h-54.13v-1.24Z" class="cls-4"></path>
      <path d="M936.94,391.7h9.85v-60.7h-9.85v-1.24h16.86c.71,0,1.42-.01,2.13-.04.71-.03,1.42-.07,2.13-.13.71,0,1.42-.01,2.13-.04.71-.03,1.42-.04,2.13-.04,3.49,0,6.57.19,9.23.58,2.66.39,5.15,1.49,7.45,3.33,2.07,1.6,3.53,3.4,4.39,5.41.86,2.01,1.29,3.9,1.29,5.68,0,.89-.16,2.03-.49,3.42-.33,1.39-1.04,2.81-2.13,4.26-1.1,1.45-2.68,2.78-4.75,3.99-2.07,1.21-4.82,2.03-8.25,2.44v.18c.95.12,2.23.34,3.86.67,1.63.33,3.28.87,4.97,1.64,1.69.77,3.24,1.79,4.66,3.06,1.42,1.27,2.42,2.91,3.02,4.92.35,1.18.61,2.53.75,4.04.15,1.51.27,3.06.36,4.66.09,1.6.18,3.14.27,4.61.09,1.48.25,2.72.49,3.73.36,1.54.92,2.93,1.69,4.17.77,1.24,2.01,1.86,3.73,1.86.77,0,1.57-.15,2.4-.44.83-.3,1.57-.77,2.22-1.42l.8.98c-.3.24-.64.49-1.02.75-.39.27-.87.52-1.46.75-.59.24-1.32.43-2.17.58-.86.15-1.91.22-3.15.22-2.37,0-4.33-.3-5.9-.89-1.57-.59-2.83-1.46-3.77-2.62-.95-1.15-1.64-2.57-2.08-4.26-.44-1.69-.75-3.65-.93-5.9l-.62-8.08c-.24-2.96-.83-5.26-1.77-6.92-.95-1.66-2.06-2.87-3.33-3.64-1.27-.77-2.59-1.23-3.95-1.38-1.36-.15-2.54-.22-3.55-.22h-8.87v32.03h9.85v1.24h-28.57v-1.24ZM955.66,358.43h8.16c1.66,0,3.16-.21,4.53-.62,1.36-.41,2.53-1.14,3.51-2.17.98-1.03,1.73-2.44,2.26-4.22.53-1.77.8-4.02.8-6.74,0-3.08-.4-5.55-1.2-7.41-.8-1.86-1.83-3.27-3.11-4.21-1.27-.95-2.69-1.57-4.26-1.86-1.57-.3-3.12-.44-4.66-.44-1.07,0-2.14.02-3.24.04-1.1.03-2.03.1-2.8.22v27.42Z" class="cls-4"></path>
      <path d="M998.25,391.7h7.81l23.96-63.54h2.13l24.14,63.54h7.9v1.24h-27.33v-1.24h9.85l-9.32-24.67h-20.59l-9.32,24.67h9.85v1.24h-19.08v-1.24ZM1027.09,339.97l-9.76,25.82h19.52l-9.76-25.82Z" class="cls-4"></path>
      <path d="M1075.45,391.7h9.85v-25.47l-19.97-35.23h-8.07v-1.24h27.15v1.24h-8.87l17.75,31.24,16.77-31.24h-8.96v-1.24h18.99v1.24h-8.61l-17.3,32.39v28.31h9.85v1.24h-28.57v-1.24Z" class="cls-4"></path>
    </g>
    <text transform="translate(678.72 438.08)" class="cls-6"><tspan y="0" x="0">Exalt finery, imbue experience</tspan></text>
  </g>
</svg>